Coordinates																																									
version=1																																									
nRows=22																																									
nColumns=42																																									
inDegrees=yes																																									
																																									
"Units are S.I. units (second, meters, Newtons, ...)"																																									
Angles are in degrees.																																									
																																									
endheader																																									
time	pelvis_tx	pelvis_ty	pelvis_tz	pelvis_tilt	pelvis_list	pelvis_rotation	hip_flexion_r	hip_adduction_r	hip_rotation_r	knee_angle_r	ankle_angle_r	subtalar_angle_r	mtp_angle_r	hip_flexion_l	hip_adduction_l	hip_rotation_l	knee_angle_l	ankle_angle_l	subtalar_angle_l	mtp_angle_l	lumbar_extension	lumbar_bending	lumbar_rotation	ground_force_vx	ground_force_vy	ground_force_vz	ground_force_px	ground_force_py	ground_force_pz	ground_force_vx	ground_force_vy	ground_force_vz	ground_force_px	ground_force_py	ground_force_pz	ground_torque_x	ground_torque_y	ground_torque_z	ground_torque_x	ground_torque_y	ground_torque_z
1.17	0.266098	0.653655	0.06631	-0.658323	18.032087	-93.767204	57.744953	2.033206	-5.751832	-55.52564	10.015129	0	0	5.742583	0.52063	-1.919221	-40.566505	15.517797	0	0	32.95527	6.452186	-7.817152	6.839279	128.153961	-22.013081	0.197325	-0.004056	0.208127	-5.539539	99.059708	30.187223	0.321971	-0.000171	-0.265399	0.000148	0.021758	-0.000388	-0.00034	0.026007	0.000501
1.18	0.264902	0.655372	0.077428	-0.501867	17.810095	-93.770866	56.530231	1.352779	-6.634779	-55.842466	10.286998	0	0	5.642973	0.690112	-1.923629	-41.111342	11.147878	0	0	32.755398	6.428803	-8.058544	9.036991	141.46669	-25.937386	0.196206	-0.004114	0.209414	-3.115973	74.365265	22.334085	0.320818	-0.000287	-0.26085	0.000085	0.012552	-0.000224	-0.000933	0.07137	0.001376
1.19	0.263595	0.656961	0.088484	-0.370344	17.631756	-93.756317	55.31705	0.76756	-7.46814	-56.096989	10.781033	0	0	5.715244	0.812979	-1.923214	-41.946497	6.890628	0	0	32.599325	6.407866	-8.239993	11.246578	156.342926	-28.867861	0.195262	-0.003823	0.210369	-1.01604	52.714676	15.004642	0.319645	-0.000083	-0.255821	0.000124	0.018188	-0.000324	-0.001178	0.090106	0.001737
1.2	0.262148	0.658318	0.099348	-0.27681	17.512659	-93.717148	54.109425	0.334644	-8.207006	-56.248828	11.573863	0	0	6.067835	0.869483	-1.917651	-43.18409	2.937735	0	0	32.497736	6.389191	-8.325991	13.30433	172.63504	-30.579844	0.194592	-0.003317	0.211027	0.598749	35.054333	8.695639	0.318121	0.000306	-0.248655	0.000298	0.043867	-0.000782	-0.001095	0.083727	0.001614
1.21	0.260589	0.659392	0.109903	-0.228839	17.457283	-93.649002	52.917324	0.071968	-8.838479	-56.283043	12.652189	0	0	6.771688	0.855731	-1.901625	-44.893044	-0.564821	0	0	32.44416	6.378572	-8.297527	15.032717	189.900848	-31.081808	0.19424	-0.002715	0.211472	1.647322	21.6541	3.740228	0.315493	0.000703	-0.236432	0.000637	0.093638	-0.00167	-0.000719	0.055001	0.00106
1.22	0.258967	0.660173	0.120055	-0.224068	17.458834	-93.555542	51.75681	-0.028357	-9.357239	-56.212716	13.942794	0	0	7.854224	0.786029	-1.86851	-47.092624	-3.501464	0	0	32.418598	6.381074	-8.149368	16.27914	207.421799	-30.66107	0.194207	-0.002119	0.211812	0	0	0	0	0	0	0.001145	0.168369	-0.003003	0	0	0
1.23	0.257337	0.660684	0.129742	-0.251692	17.50112	-93.447693	50.646467	0.012415	-9.753074	-56.073999	15.346508	0	0	9.302535	0.687704	-1.813472	-49.755688	-5.779663	0	0	32.393846	6.397456	-7.89055	16.93988	224.300018	-29.756605	0.194488	-0.001606	0.212141	0	0	0	0	0	0	0.00179	0.263228	-0.004695	0	0	0
1.24	0.255745	0.660966	0.138936	-0.29715	17.565218	-93.336327	49.606117	0.165002	-10.014009	-55.916788	16.762929	0	0	11.077833	0.592353	-1.73505	-52.819192	-7.337712	0	0	32.345044	6.423466	-7.544412	16.98423	239.529587	-28.764538	0.195068	-0.001228	0.212517	0	0	0	0	0	0	0.0025	0.367749	-0.00656	0	0	0
1.25	0.254234	0.661064	0.147637	-0.345045	17.635983	-93.224213	48.655918	0.391905	-10.134242	-55.794582	18.10718	0	0	13.132028	0.531079	-1.632421	-56.196857	-8.156525	0	0	32.257269	6.44907	-7.146505	16.470034	252.159225	-27.925798	0.195924	-0.001008	0.212968	0	0	0	0	0	0	0.003168	0.465943	-0.008311	0	0	0
1.26	0.252844	0.661028	0.155874	-0.380459	17.702728	-93.104744	47.811058	0.649611	-10.118065	-55.754592	19.319263	0	0	15.415187	0.532318	-1.504133	-59.788416	-8.266526	0	0	32.125866	6.459173	-6.739383	15.549787	261.491608	-27.315279	0.197012	-0.000939	0.213497	0	0	0	0	0	0	0.003666	0.539219	-0.009618	0	0	0
1.27	0.251599	0.660906	0.163696	-0.392191	17.756073	-92.96756	47.073838	0.898759	-9.978489	-55.828044	20.366328	0	0	17.875496	0.6158	-1.352852	-63.486458	-7.746165	0	0	31.952069	6.438561	-6.362733	14.44927	267.220551	-26.917515	0.198277	-0.000991	0.214107	0	0	0	0	0	0	0.003888	0.571871	-0.010201	0	0	0
1.28	0.250498	0.660751	0.171169	-0.377017	17.785624	-92.803833	46.428966	1.114859	-9.735069	-56.023209	21.239949	0	0	20.459263	0.785535	-1.189029	-67.183824	-6.710861	0	0	31.739158	6.378097	-6.04373	13.404205	269.501221	-26.691137	0.199651	-0.001119	0.214796	0	0	0	0	0	0	0.003778	0.555728	-0.009913	0	0	0
1.29	0.24952	0.660607	0.17837	-0.337931	17.78208	-92.609474	45.84828	1.288598	-9.411693	-56.326634	21.951244	0	0	23.115758	1.031668	-1.030194	-70.780581	-5.295601	0	0	31.492315	6.275501	-5.790899	12.579619	268.923004	-26.549154	0.201056	-0.00127	0.21555	0	0	0	0	0	0	0.003345	0.491984	-0.008776	0	0	0
1.3	0.248631	0.66051	0.185371	-0.277193	17.741423	-92.386551	45.30167	1.417166	-9.034604	-56.711576	22.52517	0	0	25.803881	1.340203	-0.897656	-74.188736	-3.636811	0	0	31.220429	6.131127	-5.592862	12.030717	266.355713	-26.355337	0.202418	-0.001395	0.216342	0	0	0	0	0	0	0.00266	0.391235	-0.006979	0	0	0
1.31	0.247799	0.660476	0.192238	-0.194906	17.66551	-92.140434	44.762792	1.498183	-8.633991	-57.14531	22.993789	0	0	28.493946	1.698211	-0.8099	-77.335213	-1.857585	0	0	30.93546	5.946507	-5.426339	11.713766	262.764618	-25.965199	0.203678	-0.001459	0.217138	0	0	0	0	0	0	0.001838	0.270309	-0.004822	0	0	0
1.32	0.247003	0.660515	0.199024	-0.091523	17.559246	-91.876205	44.209236	1.528797	-8.244418	-57.59389	23.390082	0	0	31.164545	2.093974	-0.777296	-80.163021	-0.059775	0	0	30.649262	5.725268	-5.267242	11.530723	259.006226	-25.25576	0.204797	-0.001446	0.217901	0	0	0	0	0	0	0.001006	0.147926	-0.002639	0	0	0
1.33	0.246229	0.660624	0.205769	0.032733	17.428474	-91.60006	43.623756	1.506357	-7.898666	-58.027423	23.744307	0	0	33.799369	2.517605	-0.803029	-82.630365	1.677116	0	0	30.371153	5.47219	-5.095607	11.379303	255.672562	-24.162996	0.205763	-0.001364	0.2186	0	0	0	0	0	0	0.000279	0.04106	-0.000732	0	0	0
1.34	0.245464	0.660794	0.212503	0.176357	17.279226	-91.321632	42.995453	1.433314	-7.621146	-58.422692	24.081234	0	0	36.385715	2.95651	-0.887096	-84.710397	3.295671	0	0	30.107218	5.194325	-4.895557	11.183219	252.9991	-22.710152	0.206582	-0.001235	0.219213	0	0	0	0	0	0	-0.000262	-0.038513	0.000687	0	0	0
1.35	0.244685	0.661007	0.219243	0.335304	17.116749	-91.05661	42.319231	1.321636	-7.422977	-58.763642	24.417998	0	0	38.912455	3.389323	-1.032404	-86.389715	4.760831	0	0	29.859787	4.902296	-4.6501	10.906181	250.880875	-20.998703	0.207277	-0.001088	0.219735	0	0	0	0	0	0	-0.000583	-0.085734	0.001529	0	0	0
1.36	0.243863	0.661244	0.226002	0.506428	16.944897	-90.826385	41.595186	1.188236	-7.301298	-59.042327	24.764774	0	0	41.368192	3.789543	-1.247559	-87.664481	6.056585	0	0	29.627831	4.607074	-4.338918	10.558761	249.034729	-19.157503	0.207873	-0.000943	0.220173	0	0	0	0	0	0	-0.00069	-0.101412	0.001809	0	0	0
1.37	0.242977	0.661483	0.232787	0.686487	16.767237	-90.64856	40.827326	1.04734	-7.249379	-59.257314	25.127154	0	0	43.742533	4.133642	-1.537429	-88.537898	7.178914	0	0	29.409739	4.317946	-3.951122	10.184715	247.192108	-17.289921	0.208394	-0.000811	0.220533	0	0	0	0	0	0	-0.000616	-0.090544	0.001615	0	0	0
1.38	0.24202	0.661702	0.239604	0.870049	16.58831	-90.530792	40.02189	0.908799	-7.262147	-59.409989	25.508048	0	0	46.027429	4.404423	-1.896248	-89.018566	8.129348	0	0	29.205879	4.042292	-3.493008	9.837622	245.201538	-15.460704	0.208864	-0.000695	0.220829	0	0	0	0	0	0	-0.00041	-0.060375	0.001077	0	0	0
